<?xml version="1.0" encoding="utf-8"?>
<!-- Svg Vector Icons : http://www.onlinewebfonts.com/icon -->
<!DOCTYPE svg PUBLIC "-//W3C//DTD SVG 1.1//EN" "http://www.w3.org/Graphics/SVG/1.1/DTD/svg11.dtd">
<svg version="1.1" xmlns="http://www.w3.org/2000/svg" xmlns:xlink="http://www.w3.org/1999/xlink" x="0px" y="0px" viewBox="0 0 1000 1000" enable-background="new 0 0 1000 1000" xml:space="preserve">
<metadata> Svg Vector Icons : http://www.onlinewebfonts.com/icon </metadata>
<g><g transform="translate(0.000000,511.000000) scale(0.100000,-0.100000)"><path d="M2991.2,4707.3c-656.7-139.8-1183.3-629.9-1392-1296.2l-53.6-170.4l-9.6-1547.1l-9.6-1547.1L814.2,627.2L100,1107.7v-247V615.7L881.2,89.1c700.8-471,786.9-524.6,855.9-522.7c68.9,0,174.2,65.1,995.6,618.4c505.5,340.8,942,643.3,972.7,674c59.4,63.2,67,141.7,23,227.8c-36.4,70.8-82.3,95.7-176.2,95.7c-63.2,0-168.5-65.1-844.4-518.9l-771.6-518.9l5.8,1510.7l5.7,1508.8l61.3,172.3c86.2,248.9,180,398.2,367.6,585.9c137.9,137.9,195.3,180,346.6,254.6c248.9,120.6,384.9,153.2,641.4,153.2c254.6-1.9,419.3-38.3,631.8-141.7c350.4-168.5,616.5-482.5,748.6-880.7c34.5-99.6,36.4-262.3,46-3178.4l9.6-3073.1l49.8-181.9c183.8-666.3,643.3-1141.1,1290.5-1330.7c247-72.8,597.4-86.2,855.9-32.5c626.1,130.2,1145,572.5,1359.4,1156.5c111,308.3,111,298.7,111,1979.8c0,846.3,3.8,1539.4,9.6,1539.4c5.7,0,323.6-210.6,706.5-469.1c382.9-258.5,702.7-469.1,708.4-469.1c7.6,0,9.6,109.1,7.6,241.3l-5.7,243.2l-779.3,522.7c-647.2,436.5-790.8,524.6-846.3,524.6c-53.6,0-162.7-65.1-599.3-358.1C6474-380,6294-506.3,6271-546.5c-51.7-93.8-9.6-237.4,84.3-279.6c111-49.8,132.1-38.3,928.6,495.9l771.6,518.9l5.7-1480.1c3.8-1047.3,0-1522.2-15.3-1623.6c-143.6-932.5-1168-1470.5-2020-1062.7c-298.7,141.7-522.7,367.6-670.1,670.1c-153.2,317.8-143.6,91.9-143.6,3354.5c0,1993.2-7.7,2960.1-21.1,3078.8c-86.2,696.9-562.9,1290.5-1217.7,1514.5c-103.4,34.5-243.2,72.8-312.1,82.3C3475.6,4753.3,3175,4745.6,2991.2,4707.3z"/></g></g>
</svg>