<?xml version="1.0" encoding="iso-8859-1"?>
<!-- Generator: Adobe Illustrator 19.0.0, SVG Export Plug-In . SVG Version: 6.00 Build 0)  -->
<svg version="1.1" id="Layer_1" xmlns="http://www.w3.org/2000/svg" xmlns:xlink="http://www.w3.org/1999/xlink" x="0px" y="0px"
	 viewBox="0 0 512 512" style="enable-background:new 0 0 512 512;" xml:space="preserve">
<g>
	<g>
		<path d="M26.392,0v512h459.217V0H26.392z M416.99,496.165H95.01V311.423H416.99V496.165z M469.773,496.165h-36.948V295.588H79.175
			v200.577H42.227V263.918h427.546V496.165z M95.01,248.082V63.34H416.99v184.742H95.01z M469.773,248.082h-36.948V47.505H79.175
			v200.577H42.227V15.835h427.546V248.082z"/>
	</g>
</g>
<g>
	<g>
		<path d="M174.186,110.845v79.175h163.629v-79.175H174.186z M321.979,174.186H190.021V126.68h131.959V174.186z"/>
	</g>
</g>
<g>
	<g>
		<rect x="213.773" y="142.515" width="84.454" height="15.835"/>
	</g>
</g>
<g>
	<g>
		<path d="M174.186,358.928v79.175h163.629v-79.175H174.186z M321.979,422.268H190.021v-47.505h131.959V422.268z"/>
	</g>
</g>
<g>
	<g>
		<rect x="213.773" y="390.598" width="84.454" height="15.835"/>
	</g>
</g>
<g>
</g>
<g>
</g>
<g>
</g>
<g>
</g>
<g>
</g>
<g>
</g>
<g>
</g>
<g>
</g>
<g>
</g>
<g>
</g>
<g>
</g>
<g>
</g>
<g>
</g>
<g>
</g>
<g>
</g>
</svg>
